<?xml version="1.0" encoding="utf-8"?>
<!-- Generator: Adobe Illustrator 18.1.1, SVG Export Plug-In . SVG Version: 6.00 Build 0)  -->
<svg version="1.1" id="Layer_1" xmlns="http://www.w3.org/2000/svg" xmlns:xlink="http://www.w3.org/1999/xlink" x="0px" y="0px"
	 viewBox="0 0 204.1 333.9" enable-background="new 0 0 204.1 333.9" xml:space="preserve">
<rect x="-2.8" y="-4.6" stroke="#000000" stroke-miterlimit="10" width="210.3" height="345.2"/>
<g>
	<rect x="107.9" y="146.4" fill="#FFFFFF" width="49.9" height="9.7"/>
	<g>
		<path fill="none" stroke="#FFFFFF" stroke-width="1.5" stroke-miterlimit="10" d="M132.9,25.9c-9.1,0-17,4.8-21.4,12.1v25.8
			c4.4,7.2,12.3,12.1,21.4,12.1c13.8,0,25-11.2,25-25C157.9,37.1,146.7,25.9,132.9,25.9z"/>
		<g>
			<rect x="130.8" y="48.8" fill="#FFFFFF" width="4.2" height="4.2"/>
			<polygon fill="#FFFFFF" points="122.4,61.7 125.8,59.8 122.4,57.8 			"/>
			<path fill="#FFFFFF" d="M132.9,29.5c-11.8,0-21.4,9.6-21.4,21.4c0,11.8,9.6,21.4,21.4,21.4c11.8,0,21.4-9.6,21.4-21.4
				C154.3,39,144.7,29.5,132.9,29.5z M146.8,54v-6.2h2.6v-5.3h-5v3.2l-4.9-2.8v1.9h-1v-2.3h-5v5.3h2.6V54h-2.6v6.3h-6.1v2.3h-1v-1.9
				l-4.9,2.8v-3.2h-6.1V54h-2.6v-6.2h6.2V54h-2.6v5.3h5V56l4.9,2.8v-1.9h1v2.3h5V54h-2.6v-6.2h2.6v-6.3h6.1v-2.3h1V41l4.9-2.8v3.2
				h6.1v6.3h2.6V54H146.8z"/>
			<polygon fill="#FFFFFF" points="143.3,43.9 143.3,40 140,41.9 			"/>
			<rect x="147.8" y="48.8" fill="#FFFFFF" width="4.2" height="4.2"/>
			<rect x="113.8" y="48.8" fill="#FFFFFF" width="4.2" height="4.2"/>
		</g>
	</g>
	<path fill="#FFFFFF" d="M154.3,144.4h-42.8v-41c0-11.8,9.6-21.4,21.4-21.4s21.4,9.6,21.4,21.4V144.4z M132.3,110.4l6.1-19
		l-15.9,28.2l10.9-3.1l-6.1,19l15.9-28.2L132.3,110.4z"/>
	<g>
		<path fill="none" stroke="#FFFFFF" stroke-width="0.6847" stroke-miterlimit="10" d="M128,216.8c0.6-0.7,1.2-1.4,2.4-1.4
			c2.4,0,2.4,2.9,4.8,2.9c1.2,0,1.8-0.7,2.4-1.4"/>
		<path fill="none" stroke="#FFFFFF" stroke-width="0.6847" stroke-miterlimit="10" d="M128,220.9c0.6-0.7,1.2-1.4,2.4-1.4
			c2.4,0,2.4,2.9,4.8,2.9c1.2,0,1.8-0.7,2.4-1.4"/>
	</g>
	<g>
		<path fill="none" stroke="#FFFFFF" stroke-width="0.6847" stroke-miterlimit="10" d="M150.3,222.9c0.6-0.7,1.2-1.4,2.4-1.4
			c2.4,0,2.4,2.9,4.8,2.9c1.2,0,1.8-0.7,2.4-1.4"/>
		<path fill="none" stroke="#FFFFFF" stroke-width="0.6847" stroke-miterlimit="10" d="M150.3,227.1c0.6-0.7,1.2-1.4,2.4-1.4
			c2.4,0,2.4,2.9,4.8,2.9c1.2,0,1.8-0.7,2.4-1.4"/>
	</g>
	<g>
		<path fill="none" stroke="#FFFFFF" stroke-width="0.6847" stroke-miterlimit="10" d="M105.8,222.9c0.6-0.7,1.2-1.4,2.4-1.4
			c2.4,0,2.4,2.9,4.8,2.9c1.2,0,1.8-0.7,2.4-1.4"/>
		<path fill="none" stroke="#FFFFFF" stroke-width="0.6847" stroke-miterlimit="10" d="M105.8,227.1c0.6-0.7,1.2-1.4,2.4-1.4
			c2.4,0,2.4,2.9,4.8,2.9c1.2,0,1.8-0.7,2.4-1.4"/>
	</g>
	<path fill="#FFFFFF" d="M135.6,156.1v62.1c-0.1,0-0.2,0-0.3,0c-2.4,0-2.4-2.8-4.8-2.8c-0.1,0-0.2,0-0.3,0v-59.3H135.6z"/>
	<path fill="#FFFFFF" d="M126.4,156.1v10.4c0,1.9-1.5,3.4-3.4,3.4h-6.1c-1.9,0-3.4,1.5-3.4,3.4v51c-0.1,0-0.2,0-0.3,0
		c-2.4,0-2.4-2.8-4.8-2.8c-0.1,0-0.2,0-0.3,0v-51.6c0-1.8,0.7-3.6,2-4.8l8.9-9H126.4z"/>
	<path fill="#FFFFFF" d="M157.9,166.7v57.6c-0.1,0-0.2,0-0.3,0c-2.4,0-2.4-2.8-4.8-2.8c-0.1,0-0.2,0-0.3,0v-51.6h-2.9
		c-0.8,0-1.4-0.6-1.4-1.4v-2.9l-4.5-2.4c-1.3-0.7-2.4-1.8-3.1-3c-0.7-1.2-1.1-2.7-1.1-4.2h5.5c0,1,0.5,1.9,1.4,2.3l9.8,5.3
		C157.2,164.3,157.9,165.5,157.9,166.7z"/>
	<path fill="#FFFFFF" d="M135.6,222.3v73.6h-5.5v-76.4c0.1,0,0.2,0,0.3,0c2.4,0,2.4,2.8,4.8,2.8
		C135.4,222.3,135.5,222.3,135.6,222.3z"/>
	<path fill="#FFFFFF" d="M113.4,228.5v42.8h-5.5v-45.6c0.1,0,0.2,0,0.3,0c2.4,0,2.4,2.8,4.8,2.8
		C113.2,228.5,113.3,228.5,113.4,228.5z"/>
	<path fill="#FFFFFF" d="M157.9,228.5v55.1h-5.5v-57.9c0.1,0,0.2,0,0.3,0c2.4,0,2.4,2.8,4.8,2.8
		C157.6,228.5,157.8,228.5,157.9,228.5z"/>
	<line fill="none" stroke="#FFFFFF" stroke-width="0.6847" stroke-miterlimit="10" x1="105.9" y1="146.4" x2="33.5" y2="146.4"/>
	<line fill="none" stroke="#FFFFFF" stroke-width="0.6847" stroke-miterlimit="10" x1="105.9" y1="156.1" x2="33.5" y2="156.1"/>
	<line fill="none" stroke="#FFFFFF" stroke-width="0.6847" stroke-miterlimit="10" x1="128.1" y1="295.9" x2="65.6" y2="295.9"/>
	<line fill="none" stroke="#FFFFFF" stroke-width="0.6847" stroke-miterlimit="10" x1="110.6" y1="318.6" x2="65.6" y2="318.6"/>
	<line fill="none" stroke="#FFFFFF" stroke-width="0.6847" stroke-miterlimit="10" x1="105.9" y1="271.2" x2="86.1" y2="271.2"/>
	<line fill="none" stroke="#FFFFFF" stroke-width="0.6847" stroke-miterlimit="10" x1="105.9" y1="169.9" x2="86.1" y2="169.9"/>
	<line fill="none" stroke="#FFFFFF" stroke-width="0.6847" stroke-miterlimit="10" x1="159.9" y1="283.6" x2="179.7" y2="283.6"/>
	<line fill="none" stroke="#FFFFFF" stroke-width="0.6847" stroke-miterlimit="10" x1="137.7" y1="295.9" x2="179.7" y2="295.9"/>
	<line fill="none" stroke="#FFFFFF" stroke-width="0.6847" stroke-miterlimit="10" x1="155.1" y1="318.6" x2="179.7" y2="318.6"/>
	<g>
		<line fill="none" stroke="#FFFFFF" stroke-width="0.6847" stroke-miterlimit="10" x1="69.7" y1="291" x2="69.7" y2="230.5"/>
		<g>
			<polygon fill="#FFFFFF" points="71.3,289.9 69.7,295.9 68.1,289.9 			"/>
		</g>
	</g>
	<g>
		<line fill="none" stroke="#FFFFFF" stroke-width="0.6847" stroke-miterlimit="10" x1="69.7" y1="161" x2="69.7" y2="221.5"/>
		<g>
			<polygon fill="#FFFFFF" points="68.1,162.1 69.7,156.1 71.3,162.1 			"/>
		</g>
	</g>
	<g>
		<line fill="none" stroke="#FFFFFF" stroke-width="0.6847" stroke-miterlimit="10" x1="37.6" y1="141.6" x2="37.6" y2="118.7"/>
		<g>
			<polygon fill="#FFFFFF" points="39.2,140.5 37.6,146.4 36,140.5 			"/>
		</g>
	</g>
	<g>
		<line fill="none" stroke="#FFFFFF" stroke-width="0.6847" stroke-miterlimit="10" x1="37.6" y1="86.8" x2="37.6" y2="109.7"/>
		<g>
			<polygon fill="#FFFFFF" points="36,87.9 37.6,82 39.2,87.9 			"/>
		</g>
	</g>
	<g>
		<line fill="none" stroke="#FFFFFF" stroke-width="0.6847" stroke-miterlimit="10" x1="37.6" y1="169.9" x2="37.6" y2="161"/>
		<g>
			<polygon fill="#FFFFFF" points="39.2,162.1 37.6,156.1 36,162.1 			"/>
		</g>
	</g>
	<g>
		<line fill="none" stroke="#FFFFFF" stroke-width="0.6847" stroke-miterlimit="10" x1="90.2" y1="165.1" x2="90.2" y2="130.4"/>
		<g>
			<polygon fill="#FFFFFF" points="91.8,164 90.2,169.9 88.6,164 			"/>
		</g>
	</g>
	<g>
		<line fill="none" stroke="#FFFFFF" stroke-width="0.6847" stroke-miterlimit="10" x1="90.2" y1="86.8" x2="90.2" y2="121.5"/>
		<g>
			<polygon fill="#FFFFFF" points="88.6,87.9 90.2,82 91.8,87.9 			"/>
		</g>
	</g>
	<g>
		<line fill="none" stroke="#FFFFFF" stroke-width="0.6847" stroke-miterlimit="10" x1="90.2" y1="276.1" x2="90.2" y2="279.1"/>
		<g>
			<polygon fill="#FFFFFF" points="88.6,277.2 90.2,271.2 91.8,277.2 			"/>
		</g>
	</g>
	<g>
		<line fill="none" stroke="#FFFFFF" stroke-width="0.6847" stroke-miterlimit="10" x1="90.2" y1="291" x2="90.2" y2="288"/>
		<g>
			<polygon fill="#FFFFFF" points="91.8,289.9 90.2,295.9 88.6,289.9 			"/>
		</g>
	</g>
	<g>
		<line fill="none" stroke="#FFFFFF" stroke-width="0.6847" stroke-miterlimit="10" x1="175.6" y1="274" x2="175.6" y2="278.7"/>
		<g>
			<polygon fill="#FFFFFF" points="174,277.6 175.6,283.6 177.2,277.6 			"/>
		</g>
	</g>
	<g>
		<line fill="none" stroke="#FFFFFF" stroke-width="0.6847" stroke-miterlimit="10" x1="175.6" y1="305.5" x2="175.6" y2="300.7"/>
		<g>
			<polygon fill="#FFFFFF" points="177.2,301.8 175.6,295.9 174,301.8 			"/>
		</g>
	</g>
	<g>
		<line fill="none" stroke="#FFFFFF" stroke-width="0.6847" stroke-miterlimit="10" x1="115.5" y1="318.6" x2="128" y2="318.6"/>
		<g>
			<polygon fill="#FFFFFF" points="116.6,320.2 110.6,318.6 116.6,317 			"/>
		</g>
		<g>
			<polygon fill="#FFFFFF" points="126.9,320.2 132.9,318.6 126.9,317 			"/>
		</g>
	</g>
	<g>
		<line fill="none" stroke="#FFFFFF" stroke-width="0.6847" stroke-miterlimit="10" x1="137.7" y1="318.6" x2="150.3" y2="318.6"/>
		<g>
			<polygon fill="#FFFFFF" points="138.8,320.2 132.9,318.6 138.8,317 			"/>
		</g>
		<g>
			<polygon fill="#FFFFFF" points="149.2,320.2 155.1,318.6 149.2,317 			"/>
		</g>
	</g>
	<line fill="none" stroke="#FFFFFF" stroke-width="0.6847" stroke-miterlimit="10" x1="110.6" y1="273.3" x2="110.6" y2="322.7"/>
	<line fill="none" stroke="#FFFFFF" stroke-width="0.6847" stroke-miterlimit="10" x1="132.9" y1="297.9" x2="132.9" y2="322.7"/>
	<line fill="none" stroke="#FFFFFF" stroke-width="0.6847" stroke-miterlimit="10" x1="155.1" y1="285.6" x2="155.1" y2="322.7"/>
	<g>
		<path fill="#FFFFFF" d="M11.2,48.4h4v1h-2.5v0.8H15v1h-2.3v1h2.6v1.1h-4.1V48.4z"/>
		<path fill="#FFFFFF" d="M16.1,48.4h1.5v3.7h2.3v1.2h-3.8V48.4z"/>
		<path fill="#FFFFFF" d="M20.6,48.4h4v1h-2.5v0.8h2.3v1h-2.3v1h2.6v1.1h-4.1V48.4z"/>
		<path fill="#FFFFFF" d="M28.7,51.3l1.3,0.4c-0.1,0.4-0.2,0.7-0.4,0.9c-0.2,0.2-0.4,0.4-0.7,0.6c-0.3,0.1-0.6,0.2-1.1,0.2
			c-0.5,0-1-0.1-1.3-0.2c-0.3-0.2-0.6-0.4-0.9-0.8c-0.2-0.4-0.4-0.9-0.4-1.5c0-0.8,0.2-1.4,0.6-1.8c0.4-0.4,1-0.6,1.8-0.6
			c0.6,0,1.1,0.1,1.4,0.4c0.3,0.2,0.6,0.6,0.8,1.1l-1.3,0.3c0-0.1-0.1-0.3-0.1-0.3c-0.1-0.1-0.2-0.2-0.3-0.3
			c-0.1-0.1-0.3-0.1-0.4-0.1c-0.3,0-0.6,0.1-0.8,0.4c-0.1,0.2-0.2,0.5-0.2,1c0,0.5,0.1,0.9,0.2,1.1c0.2,0.2,0.4,0.3,0.7,0.3
			c0.3,0,0.5-0.1,0.6-0.2C28.5,51.8,28.6,51.6,28.7,51.3z"/>
		<path fill="#FFFFFF" d="M30.4,48.4h4.6v1.2h-1.5v3.6h-1.5v-3.6h-1.5V48.4z"/>
		<path fill="#FFFFFF" d="M35.6,53.3v-4.8h2.5c0.5,0,0.8,0,1.1,0.1c0.2,0.1,0.4,0.2,0.6,0.4c0.1,0.2,0.2,0.5,0.2,0.8
			c0,0.3-0.1,0.5-0.2,0.7c-0.1,0.2-0.3,0.4-0.5,0.5c-0.1,0.1-0.3,0.1-0.5,0.2c0.2,0.1,0.3,0.1,0.4,0.2c0.1,0,0.1,0.1,0.2,0.3
			c0.1,0.1,0.2,0.2,0.2,0.3l0.7,1.4h-1.7l-0.8-1.5c-0.1-0.2-0.2-0.3-0.3-0.4c-0.1-0.1-0.2-0.1-0.4-0.1h-0.1v2H35.6z M37.1,50.4h0.6
			c0.1,0,0.2,0,0.4-0.1c0.1,0,0.2-0.1,0.2-0.2c0.1-0.1,0.1-0.2,0.1-0.3c0-0.2,0-0.3-0.1-0.4c-0.1-0.1-0.3-0.1-0.6-0.1h-0.7V50.4z"/>
		<path fill="#FFFFFF" d="M40.6,50.9c0-0.8,0.2-1.4,0.7-1.8s1.1-0.7,1.8-0.7c0.8,0,1.4,0.2,1.9,0.6c0.4,0.4,0.7,1,0.7,1.8
			c0,0.6-0.1,1-0.3,1.4c-0.2,0.4-0.5,0.6-0.8,0.8c-0.4,0.2-0.8,0.3-1.3,0.3c-0.5,0-1-0.1-1.4-0.3c-0.4-0.2-0.6-0.4-0.9-0.8
			C40.7,51.9,40.6,51.4,40.6,50.9z M42.1,50.9c0,0.5,0.1,0.8,0.3,1.1c0.2,0.2,0.4,0.3,0.7,0.3c0.3,0,0.6-0.1,0.7-0.3
			c0.2-0.2,0.3-0.6,0.3-1.1c0-0.5-0.1-0.8-0.3-1c-0.2-0.2-0.4-0.3-0.7-0.3c-0.3,0-0.5,0.1-0.7,0.3C42.2,50,42.1,50.4,42.1,50.9z"/>
		<path fill="#FFFFFF" d="M46.4,48.4h1.4l1.8,2.7v-2.7H51v4.8h-1.4l-1.8-2.7v2.7h-1.4V48.4z"/>
		<path fill="#FFFFFF" d="M52.1,48.4h1.5v4.8h-1.5V48.4z"/>
		<path fill="#FFFFFF" d="M57.9,51.3l1.3,0.4c-0.1,0.4-0.2,0.7-0.4,0.9c-0.2,0.2-0.4,0.4-0.7,0.6c-0.3,0.1-0.6,0.2-1.1,0.2
			c-0.5,0-1-0.1-1.3-0.2c-0.3-0.2-0.6-0.4-0.9-0.8c-0.2-0.4-0.4-0.9-0.4-1.5c0-0.8,0.2-1.4,0.6-1.8c0.4-0.4,1-0.6,1.8-0.6
			c0.6,0,1.1,0.1,1.4,0.4c0.3,0.2,0.6,0.6,0.8,1.1l-1.3,0.3c0-0.1-0.1-0.3-0.1-0.3c-0.1-0.1-0.2-0.2-0.3-0.3
			c-0.1-0.1-0.3-0.1-0.4-0.1c-0.3,0-0.6,0.1-0.8,0.4c-0.1,0.2-0.2,0.5-0.2,1c0,0.5,0.1,0.9,0.2,1.1c0.2,0.2,0.4,0.3,0.7,0.3
			c0.3,0,0.5-0.1,0.6-0.2S57.8,51.6,57.9,51.3z"/>
		<path fill="#FFFFFF" d="M59.7,51.7l1.4-0.1c0,0.2,0.1,0.4,0.2,0.5c0.2,0.2,0.4,0.3,0.7,0.3c0.2,0,0.4,0,0.5-0.2s0.2-0.2,0.2-0.3
			c0-0.1-0.1-0.2-0.2-0.3c-0.1-0.1-0.4-0.2-0.8-0.3c-0.7-0.1-1.1-0.3-1.4-0.6c-0.3-0.2-0.4-0.6-0.4-0.9c0-0.2,0.1-0.5,0.2-0.7
			c0.1-0.2,0.4-0.4,0.7-0.5c0.3-0.1,0.7-0.2,1.2-0.2c0.6,0,1.1,0.1,1.4,0.3c0.3,0.2,0.5,0.6,0.6,1.1l-1.4,0.1c0-0.2-0.1-0.4-0.2-0.5
			c-0.1-0.1-0.3-0.1-0.5-0.1c-0.2,0-0.3,0-0.4,0.1c-0.1,0.1-0.1,0.2-0.1,0.3c0,0.1,0,0.1,0.1,0.2c0.1,0.1,0.2,0.1,0.5,0.2
			c0.7,0.1,1.1,0.3,1.4,0.4c0.3,0.1,0.5,0.3,0.6,0.5c0.1,0.2,0.2,0.5,0.2,0.7c0,0.3-0.1,0.6-0.3,0.9s-0.4,0.5-0.7,0.6
			c-0.3,0.1-0.7,0.2-1.2,0.2c-0.8,0-1.4-0.2-1.7-0.5C59.9,52.6,59.7,52.2,59.7,51.7z"/>
	</g>
	<g>
		<path fill="#FFFFFF" d="M17.4,111.8h2.5c0.5,0,0.9,0.1,1.2,0.4c0.3,0.3,0.4,0.6,0.4,1.1c0,0.5-0.1,0.9-0.4,1.1
			c-0.3,0.3-0.7,0.4-1.3,0.4h-0.8v1.8h-1.5V111.8z M18.9,113.9h0.4c0.3,0,0.5-0.1,0.6-0.2c0.1-0.1,0.2-0.2,0.2-0.4
			c0-0.2-0.1-0.3-0.2-0.4c-0.1-0.1-0.3-0.2-0.6-0.2h-0.4V113.9z"/>
		<path fill="#FFFFFF" d="M22.1,114.2c0-0.8,0.2-1.4,0.7-1.8s1.1-0.7,1.8-0.7c0.8,0,1.4,0.2,1.9,0.6c0.4,0.4,0.7,1,0.7,1.8
			c0,0.6-0.1,1-0.3,1.4c-0.2,0.4-0.5,0.6-0.8,0.8c-0.4,0.2-0.8,0.3-1.3,0.3c-0.5,0-1-0.1-1.4-0.3c-0.4-0.2-0.6-0.4-0.9-0.8
			C22.2,115.2,22.1,114.8,22.1,114.2z M23.6,114.2c0,0.5,0.1,0.8,0.3,1.1c0.2,0.2,0.4,0.3,0.7,0.3c0.3,0,0.6-0.1,0.7-0.3
			c0.2-0.2,0.3-0.6,0.3-1.1c0-0.5-0.1-0.8-0.3-1c-0.2-0.2-0.4-0.3-0.7-0.3c-0.3,0-0.5,0.1-0.7,0.3C23.7,113.4,23.6,113.7,23.6,114.2
			z"/>
		<path fill="#FFFFFF" d="M27.9,116.6v-4.8h2.5c0.5,0,0.8,0,1.1,0.1c0.2,0.1,0.4,0.2,0.6,0.4c0.1,0.2,0.2,0.5,0.2,0.8
			c0,0.3-0.1,0.5-0.2,0.7c-0.1,0.2-0.3,0.4-0.5,0.5c-0.1,0.1-0.3,0.1-0.5,0.2c0.2,0.1,0.3,0.1,0.4,0.2c0.1,0,0.1,0.1,0.2,0.3
			s0.2,0.2,0.2,0.3l0.7,1.4H31l-0.8-1.5c-0.1-0.2-0.2-0.3-0.3-0.4c-0.1-0.1-0.2-0.1-0.4-0.1h-0.1v2H27.9z M29.4,113.7h0.6
			c0.1,0,0.2,0,0.4-0.1c0.1,0,0.2-0.1,0.2-0.2c0.1-0.1,0.1-0.2,0.1-0.3c0-0.2,0-0.3-0.1-0.4c-0.1-0.1-0.3-0.1-0.6-0.1h-0.7V113.7z"
			/>
		<path fill="#FFFFFF" d="M32.8,111.8h4.6v1.2h-1.5v3.6h-1.5V113h-1.5V111.8z"/>
		<path fill="#FFFFFF" d="M38,111.8h1.5v3.7h2.3v1.2H38V111.8z"/>
		<path fill="#FFFFFF" d="M45.5,115.8h-1.7l-0.2,0.8H42l1.8-4.8h1.6l1.8,4.8h-1.6L45.5,115.8z M45.2,114.8l-0.5-1.7l-0.5,1.7H45.2z"
			/>
		<path fill="#FFFFFF" d="M47.8,111.8h1.4l1.8,2.7v-2.7h1.4v4.8H51l-1.8-2.7v2.7h-1.4V111.8z"/>
		<path fill="#FFFFFF" d="M53.4,111.8h2.2c0.4,0,0.8,0.1,1.1,0.2c0.3,0.1,0.5,0.3,0.7,0.5c0.2,0.2,0.3,0.5,0.4,0.8
			c0.1,0.3,0.1,0.6,0.1,0.9c0,0.5-0.1,0.9-0.2,1.2c-0.1,0.3-0.3,0.5-0.5,0.7c-0.2,0.2-0.4,0.3-0.7,0.4c-0.3,0.1-0.6,0.1-0.9,0.1
			h-2.2V111.8z M54.9,112.9v2.6h0.4c0.3,0,0.5,0,0.7-0.1c0.1-0.1,0.2-0.2,0.3-0.4c0.1-0.2,0.1-0.5,0.1-0.8c0-0.5-0.1-0.9-0.3-1.1
			c-0.2-0.2-0.4-0.3-0.8-0.3H54.9z"/>
	</g>
	<g>
		<path fill="#FFFFFF" d="M17.4,174.8l1.3,0.4c-0.1,0.4-0.2,0.7-0.4,0.9c-0.2,0.2-0.4,0.4-0.7,0.6c-0.3,0.1-0.6,0.2-1.1,0.2
			c-0.5,0-1-0.1-1.3-0.2c-0.3-0.2-0.6-0.4-0.9-0.8S14,175,14,174.4c0-0.8,0.2-1.4,0.6-1.8c0.4-0.4,1-0.6,1.8-0.6
			c0.6,0,1.1,0.1,1.4,0.4c0.3,0.2,0.6,0.6,0.8,1.1l-1.3,0.3c0-0.1-0.1-0.3-0.1-0.3c-0.1-0.1-0.2-0.2-0.3-0.3
			c-0.1-0.1-0.3-0.1-0.4-0.1c-0.3,0-0.6,0.1-0.8,0.4c-0.1,0.2-0.2,0.5-0.2,1c0,0.5,0.1,0.9,0.2,1.1c0.2,0.2,0.4,0.3,0.7,0.3
			c0.3,0,0.5-0.1,0.6-0.2C17.3,175.4,17.4,175.1,17.4,174.8z"/>
		<path fill="#FFFFFF" d="M19.3,174.4c0-0.8,0.2-1.4,0.7-1.8c0.4-0.4,1.1-0.7,1.8-0.7c0.8,0,1.4,0.2,1.9,0.6c0.4,0.4,0.7,1,0.7,1.8
			c0,0.6-0.1,1-0.3,1.4c-0.2,0.4-0.5,0.6-0.8,0.8c-0.4,0.2-0.8,0.3-1.3,0.3c-0.5,0-1-0.1-1.4-0.3c-0.4-0.2-0.6-0.4-0.9-0.8
			C19.4,175.4,19.3,175,19.3,174.4z M20.8,174.4c0,0.5,0.1,0.8,0.3,1.1c0.2,0.2,0.4,0.3,0.7,0.3c0.3,0,0.6-0.1,0.7-0.3
			c0.2-0.2,0.3-0.6,0.3-1.1c0-0.5-0.1-0.8-0.3-1c-0.2-0.2-0.4-0.3-0.7-0.3c-0.3,0-0.5,0.1-0.7,0.3C20.9,173.6,20.8,173.9,20.8,174.4
			z"/>
		<path fill="#FFFFFF" d="M25.1,172h2l0.8,2.9l0.8-2.9h2v4.8h-1.2v-3.7l-0.9,3.7h-1.1l-0.9-3.7v3.7h-1.2V172z"/>
		<path fill="#FFFFFF" d="M31.5,172H34c0.5,0,0.9,0.1,1.2,0.4c0.3,0.3,0.4,0.6,0.4,1.1c0,0.5-0.1,0.9-0.4,1.1
			c-0.3,0.3-0.7,0.4-1.3,0.4H33v1.8h-1.5V172z M33,174h0.4c0.3,0,0.5-0.1,0.6-0.2c0.1-0.1,0.2-0.2,0.2-0.4c0-0.2-0.1-0.3-0.2-0.4
			c-0.1-0.1-0.3-0.2-0.6-0.2H33V174z"/>
		<path fill="#FFFFFF" d="M39.6,172H41v2.9c0,0.3,0,0.6-0.1,0.8c-0.1,0.3-0.2,0.5-0.4,0.7c-0.2,0.2-0.4,0.3-0.6,0.4
			c-0.3,0.1-0.6,0.2-1,0.2c-0.2,0-0.5,0-0.8,0c-0.3,0-0.5-0.1-0.7-0.2c-0.2-0.1-0.4-0.2-0.5-0.4c-0.2-0.2-0.3-0.4-0.3-0.6
			c-0.1-0.3-0.1-0.6-0.1-0.8V172h1.5v3c0,0.3,0.1,0.5,0.2,0.6c0.1,0.1,0.3,0.2,0.6,0.2c0.3,0,0.5-0.1,0.6-0.2
			c0.1-0.1,0.2-0.4,0.2-0.6V172z"/>
		<path fill="#FFFFFF" d="M41.7,172h4.6v1.2h-1.5v3.6h-1.5v-3.6h-1.5V172z"/>
		<path fill="#FFFFFF" d="M46.9,172h4v1h-2.5v0.8h2.3v1h-2.3v1H51v1.1h-4.1V172z"/>
		<path fill="#FFFFFF" d="M51.8,176.8V172h2.5c0.5,0,0.8,0,1.1,0.1c0.2,0.1,0.4,0.2,0.6,0.4c0.1,0.2,0.2,0.5,0.2,0.8
			c0,0.3-0.1,0.5-0.2,0.7c-0.1,0.2-0.3,0.4-0.5,0.5c-0.1,0.1-0.3,0.1-0.5,0.2c0.2,0.1,0.3,0.1,0.4,0.2c0.1,0,0.1,0.1,0.2,0.3
			c0.1,0.1,0.2,0.2,0.2,0.3l0.7,1.4h-1.7l-0.8-1.5c-0.1-0.2-0.2-0.3-0.3-0.4c-0.1-0.1-0.2-0.1-0.4-0.1h-0.1v2H51.8z M53.3,173.9H54
			c0.1,0,0.2,0,0.4-0.1c0.1,0,0.2-0.1,0.2-0.2c0.1-0.1,0.1-0.2,0.1-0.3c0-0.2,0-0.3-0.1-0.4c-0.1-0.1-0.3-0.1-0.6-0.1h-0.7V173.9z"
			/>
		<path fill="#FFFFFF" d="M56.8,175.2l1.4-0.1c0,0.2,0.1,0.4,0.2,0.5c0.2,0.2,0.4,0.3,0.7,0.3c0.2,0,0.4,0,0.5-0.1s0.2-0.2,0.2-0.3
			c0-0.1-0.1-0.2-0.2-0.3c-0.1-0.1-0.4-0.2-0.8-0.3c-0.7-0.1-1.1-0.3-1.4-0.6c-0.3-0.2-0.4-0.6-0.4-0.9c0-0.2,0.1-0.5,0.2-0.7
			c0.1-0.2,0.4-0.4,0.7-0.5c0.3-0.1,0.7-0.2,1.2-0.2c0.6,0,1.1,0.1,1.4,0.3s0.5,0.6,0.6,1.1l-1.4,0.1c0-0.2-0.1-0.4-0.2-0.5
			c-0.1-0.1-0.3-0.1-0.5-0.1c-0.2,0-0.3,0-0.4,0.1c-0.1,0.1-0.1,0.2-0.1,0.3c0,0.1,0,0.1,0.1,0.2c0.1,0.1,0.2,0.1,0.5,0.2
			c0.7,0.1,1.1,0.3,1.4,0.4c0.3,0.1,0.5,0.3,0.6,0.5c0.1,0.2,0.2,0.5,0.2,0.7c0,0.3-0.1,0.6-0.3,0.9s-0.4,0.5-0.7,0.6
			c-0.3,0.1-0.7,0.2-1.2,0.2c-0.8,0-1.4-0.2-1.7-0.5C57,176.1,56.9,175.7,56.8,175.2z"/>
	</g>
	<g>
		<path fill="#FFFFFF" d="M65.6,227.6h-1.7l-0.2,0.8h-1.5l1.8-4.8h1.6l1.8,4.8h-1.6L65.6,227.6z M65.3,226.6l-0.5-1.7l-0.5,1.7H65.3
			z"/>
		<path fill="#FFFFFF" d="M67.9,228.4v-4.8h2.5c0.5,0,0.8,0,1.1,0.1c0.2,0.1,0.4,0.2,0.6,0.4c0.1,0.2,0.2,0.5,0.2,0.8
			c0,0.3-0.1,0.5-0.2,0.7c-0.1,0.2-0.3,0.4-0.5,0.5c-0.1,0.1-0.3,0.1-0.5,0.2c0.2,0.1,0.3,0.1,0.4,0.2c0.1,0,0.1,0.1,0.2,0.3
			c0.1,0.1,0.2,0.2,0.2,0.3l0.7,1.4h-1.7l-0.8-1.5c-0.1-0.2-0.2-0.3-0.3-0.4c-0.1-0.1-0.2-0.1-0.4-0.1h-0.1v2H67.9z M69.4,225.5H70
			c0.1,0,0.2,0,0.4-0.1c0.1,0,0.2-0.1,0.2-0.2c0.1-0.1,0.1-0.2,0.1-0.3c0-0.2,0-0.3-0.1-0.4c-0.1-0.1-0.3-0.1-0.6-0.1h-0.7V225.5z"
			/>
		<path fill="#FFFFFF" d="M72.7,223.6h4.6v1.2h-1.5v3.6h-1.5v-3.6h-1.5V223.6z"/>
	</g>
	<g>
		<path fill="#FFFFFF" d="M73.7,284.4l1.4-0.1c0,0.2,0.1,0.4,0.2,0.5c0.2,0.2,0.4,0.3,0.7,0.3c0.2,0,0.4,0,0.5-0.1
			c0.1-0.1,0.2-0.2,0.2-0.3c0-0.1-0.1-0.2-0.2-0.3c-0.1-0.1-0.4-0.2-0.8-0.3c-0.7-0.1-1.1-0.3-1.4-0.6c-0.3-0.2-0.4-0.6-0.4-0.9
			c0-0.2,0.1-0.5,0.2-0.7c0.1-0.2,0.4-0.4,0.7-0.5c0.3-0.1,0.7-0.2,1.2-0.2c0.6,0,1.1,0.1,1.4,0.3c0.3,0.2,0.5,0.6,0.6,1.1l-1.4,0.1
			c0-0.2-0.1-0.4-0.2-0.5c-0.1-0.1-0.3-0.1-0.5-0.1c-0.2,0-0.3,0-0.4,0.1c-0.1,0.1-0.1,0.2-0.1,0.3c0,0.1,0,0.1,0.1,0.2
			c0.1,0.1,0.2,0.1,0.5,0.2c0.7,0.1,1.1,0.3,1.4,0.4c0.3,0.1,0.5,0.3,0.6,0.5c0.1,0.2,0.2,0.5,0.2,0.7c0,0.3-0.1,0.6-0.3,0.9
			c-0.2,0.3-0.4,0.5-0.7,0.6c-0.3,0.1-0.7,0.2-1.2,0.2c-0.8,0-1.4-0.2-1.7-0.5C73.9,285.3,73.7,284.9,73.7,284.4z"/>
		<path fill="#FFFFFF" d="M82.1,284l1.3,0.4c-0.1,0.4-0.2,0.7-0.4,0.9c-0.2,0.2-0.4,0.4-0.7,0.6c-0.3,0.1-0.6,0.2-1.1,0.2
			c-0.5,0-1-0.1-1.3-0.2c-0.3-0.2-0.6-0.4-0.9-0.8s-0.4-0.9-0.4-1.5c0-0.8,0.2-1.4,0.6-1.8c0.4-0.4,1-0.6,1.8-0.6
			c0.6,0,1.1,0.1,1.4,0.4c0.3,0.2,0.6,0.6,0.8,1.1l-1.3,0.3c0-0.1-0.1-0.3-0.1-0.3c-0.1-0.1-0.2-0.2-0.3-0.3
			c-0.1-0.1-0.3-0.1-0.4-0.1c-0.3,0-0.6,0.1-0.8,0.4c-0.1,0.2-0.2,0.5-0.2,1c0,0.5,0.1,0.9,0.2,1.1c0.2,0.2,0.4,0.3,0.7,0.3
			c0.3,0,0.5-0.1,0.6-0.2C81.9,284.5,82,284.3,82.1,284z"/>
		<path fill="#FFFFFF" d="M84.2,281.1h1.5v4.8h-1.5V281.1z"/>
		<path fill="#FFFFFF" d="M86.7,281.1h4v1h-2.5v0.8h2.3v1h-2.3v1h2.6v1.1h-4.1V281.1z"/>
		<path fill="#FFFFFF" d="M91.7,281.1H93l1.8,2.7v-2.7h1.4v4.8h-1.4l-1.8-2.7v2.7h-1.4V281.1z"/>
		<path fill="#FFFFFF" d="M100.5,284l1.3,0.4c-0.1,0.4-0.2,0.7-0.4,0.9c-0.2,0.2-0.4,0.4-0.7,0.6c-0.3,0.1-0.6,0.2-1.1,0.2
			c-0.5,0-1-0.1-1.3-0.2c-0.3-0.2-0.6-0.4-0.9-0.8s-0.4-0.9-0.4-1.5c0-0.8,0.2-1.4,0.6-1.8c0.4-0.4,1-0.6,1.8-0.6
			c0.6,0,1.1,0.1,1.4,0.4c0.3,0.2,0.6,0.6,0.8,1.1l-1.3,0.3c0-0.1-0.1-0.3-0.1-0.3c-0.1-0.1-0.2-0.2-0.3-0.3
			c-0.1-0.1-0.3-0.1-0.4-0.1c-0.3,0-0.6,0.1-0.8,0.4c-0.1,0.2-0.2,0.5-0.2,1c0,0.5,0.1,0.9,0.2,1.1c0.2,0.2,0.4,0.3,0.7,0.3
			c0.3,0,0.5-0.1,0.6-0.2C100.3,284.5,100.4,284.3,100.5,284z"/>
		<path fill="#FFFFFF" d="M102.5,281.1h4v1H104v0.8h2.3v1H104v1h2.6v1.1h-4.1V281.1z"/>
	</g>
	<g>
		<path fill="#FFFFFF" d="M165.6,287.3h4.6v1.2h-1.5v3.6h-1.5v-3.6h-1.5V287.3z"/>
		<path fill="#FFFFFF" d="M170.8,287.3h4v1h-2.5v0.8h2.3v1h-2.3v1h2.6v1.1h-4.1V287.3z"/>
		<path fill="#FFFFFF" d="M178.9,290.2l1.3,0.4c-0.1,0.4-0.2,0.7-0.4,0.9c-0.2,0.2-0.4,0.4-0.7,0.6c-0.3,0.1-0.6,0.2-1.1,0.2
			c-0.5,0-1-0.1-1.3-0.2c-0.3-0.2-0.6-0.4-0.9-0.8c-0.2-0.4-0.4-0.9-0.4-1.5c0-0.8,0.2-1.4,0.6-1.8c0.4-0.4,1-0.6,1.8-0.6
			c0.6,0,1.1,0.1,1.4,0.4c0.3,0.2,0.6,0.6,0.8,1.1l-1.3,0.3c0-0.1-0.1-0.3-0.1-0.3c-0.1-0.1-0.2-0.2-0.3-0.3
			c-0.1-0.1-0.3-0.1-0.4-0.1c-0.3,0-0.6,0.1-0.8,0.4c-0.1,0.2-0.2,0.5-0.2,1c0,0.5,0.1,0.9,0.2,1.1c0.2,0.2,0.4,0.3,0.7,0.3
			c0.3,0,0.5-0.1,0.6-0.2C178.7,290.7,178.9,290.5,178.9,290.2z"/>
		<path fill="#FFFFFF" d="M181,287.3h1.5v1.7h1.6v-1.7h1.5v4.8h-1.5v-2h-1.6v2H181V287.3z"/>
	</g>
	<g>
		<path fill="#FFFFFF" d="M61.7,320.7h1.4l0.5,2.7l0.7-2.7h1.4l0.8,2.7l0.5-2.7h1.4l-1.1,4.8h-1.5l-0.8-3l-0.8,3h-1.5L61.7,320.7z"
			/>
		<path fill="#FFFFFF" d="M68.9,320.7h4v1h-2.5v0.8h2.3v1h-2.3v1H73v1.1h-4.1V320.7z"/>
		<path fill="#FFFFFF" d="M73.9,320.7h1.5v4.8h-1.5V320.7z"/>
		<path fill="#FFFFFF" d="M76.5,325.5v-4.8H79c0.5,0,0.8,0,1.1,0.1c0.2,0.1,0.4,0.2,0.6,0.4c0.1,0.2,0.2,0.5,0.2,0.8
			c0,0.3-0.1,0.5-0.2,0.7c-0.1,0.2-0.3,0.4-0.5,0.5c-0.1,0.1-0.3,0.1-0.5,0.2c0.2,0.1,0.3,0.1,0.4,0.2c0.1,0,0.1,0.1,0.2,0.3
			c0.1,0.1,0.2,0.2,0.2,0.3l0.7,1.4h-1.7l-0.8-1.5c-0.1-0.2-0.2-0.3-0.3-0.4c-0.1-0.1-0.2-0.1-0.4-0.1H78v2H76.5z M78,322.6h0.6
			c0.1,0,0.2,0,0.4-0.1c0.1,0,0.2-0.1,0.2-0.2c0.1-0.1,0.1-0.2,0.1-0.3c0-0.2,0-0.3-0.1-0.4c-0.1-0.1-0.3-0.1-0.6-0.1H78V322.6z"/>
		<path fill="#FFFFFF" d="M81.7,320.7H84c0.4,0,0.8,0.1,1.1,0.2c0.3,0.1,0.5,0.3,0.7,0.5s0.3,0.5,0.4,0.8c0.1,0.3,0.1,0.6,0.1,0.9
			c0,0.5-0.1,0.9-0.2,1.2c-0.1,0.3-0.3,0.5-0.5,0.7c-0.2,0.2-0.4,0.3-0.7,0.4c-0.3,0.1-0.6,0.1-0.9,0.1h-2.2V320.7z M83.2,321.8v2.6
			h0.4c0.3,0,0.5,0,0.7-0.1c0.1-0.1,0.2-0.2,0.3-0.4c0.1-0.2,0.1-0.5,0.1-0.8c0-0.5-0.1-0.9-0.3-1.1c-0.2-0.2-0.4-0.3-0.8-0.3H83.2z
			"/>
		<path fill="#FFFFFF" d="M87,320.7h1.4l1.8,2.7v-2.7h1.4v4.8h-1.4l-1.8-2.7v2.7H87V320.7z"/>
		<path fill="#FFFFFF" d="M92.6,320.7h4v1h-2.5v0.8h2.3v1h-2.3v1h2.6v1.1h-4.1V320.7z"/>
		<path fill="#FFFFFF" d="M97.3,323.9l1.4-0.1c0,0.2,0.1,0.4,0.2,0.5c0.2,0.2,0.4,0.3,0.7,0.3c0.2,0,0.4,0,0.5-0.1
			c0.1-0.1,0.2-0.2,0.2-0.3c0-0.1-0.1-0.2-0.2-0.3c-0.1-0.1-0.4-0.2-0.8-0.3c-0.7-0.1-1.1-0.3-1.4-0.6c-0.3-0.2-0.4-0.6-0.4-0.9
			c0-0.2,0.1-0.5,0.2-0.7c0.1-0.2,0.4-0.4,0.7-0.5c0.3-0.1,0.7-0.2,1.2-0.2c0.6,0,1.1,0.1,1.4,0.3c0.3,0.2,0.5,0.6,0.6,1.1l-1.4,0.1
			c0-0.2-0.1-0.4-0.2-0.5c-0.1-0.1-0.3-0.1-0.5-0.1c-0.2,0-0.3,0-0.4,0.1c-0.1,0.1-0.1,0.2-0.1,0.3c0,0.1,0,0.1,0.1,0.2
			c0.1,0.1,0.2,0.1,0.5,0.2c0.7,0.1,1.1,0.3,1.4,0.4c0.3,0.1,0.5,0.3,0.6,0.5c0.1,0.2,0.2,0.5,0.2,0.7c0,0.3-0.1,0.6-0.3,0.9
			c-0.2,0.3-0.4,0.5-0.7,0.6c-0.3,0.1-0.7,0.2-1.2,0.2c-0.8,0-1.4-0.2-1.7-0.5C97.5,324.8,97.3,324.4,97.3,323.9z"/>
		<path fill="#FFFFFF" d="M102.1,323.9l1.4-0.1c0,0.2,0.1,0.4,0.2,0.5c0.2,0.2,0.4,0.3,0.7,0.3c0.2,0,0.4,0,0.5-0.1
			c0.1-0.1,0.2-0.2,0.2-0.3c0-0.1-0.1-0.2-0.2-0.3c-0.1-0.1-0.4-0.2-0.8-0.3c-0.7-0.1-1.1-0.3-1.4-0.6c-0.3-0.2-0.4-0.6-0.4-0.9
			c0-0.2,0.1-0.5,0.2-0.7c0.1-0.2,0.4-0.4,0.7-0.5c0.3-0.1,0.7-0.2,1.2-0.2c0.6,0,1.1,0.1,1.4,0.3c0.3,0.2,0.5,0.6,0.6,1.1l-1.4,0.1
			c0-0.2-0.1-0.4-0.2-0.5c-0.1-0.1-0.3-0.1-0.5-0.1c-0.2,0-0.3,0-0.4,0.1c-0.1,0.1-0.1,0.2-0.1,0.3c0,0.1,0,0.1,0.1,0.2
			c0.1,0.1,0.2,0.1,0.5,0.2c0.7,0.1,1.1,0.3,1.4,0.4c0.3,0.1,0.5,0.3,0.6,0.5c0.1,0.2,0.2,0.5,0.2,0.7c0,0.3-0.1,0.6-0.3,0.9
			s-0.4,0.5-0.7,0.6c-0.3,0.1-0.7,0.2-1.2,0.2c-0.8,0-1.4-0.2-1.7-0.5C102.4,324.8,102.2,324.4,102.1,323.9z"/>
	</g>
	<g>
		<path fill="#FFFFFF" d="M165.7,315.7h-2.5v-1.1l2.5-2.9h1.2v3h0.6v1h-0.6v0.9h-1.2V315.7z M165.7,314.6v-1.5l-1.3,1.5H165.7z"/>
		<path fill="#FFFFFF" d="M168.5,311.7h3.2v1.1h-2.2l-0.1,0.7c0.1-0.1,0.3-0.1,0.4-0.2c0.1,0,0.3-0.1,0.4-0.1c0.5,0,0.9,0.1,1.2,0.4
			c0.3,0.3,0.5,0.7,0.5,1.1c0,0.3-0.1,0.6-0.2,0.9c-0.2,0.3-0.4,0.5-0.7,0.7c-0.3,0.2-0.7,0.2-1.1,0.2c-0.3,0-0.6,0-0.8-0.1
			c-0.2-0.1-0.4-0.2-0.6-0.3c-0.2-0.1-0.3-0.3-0.4-0.4c-0.1-0.2-0.2-0.3-0.2-0.6l1.4-0.1c0,0.2,0.1,0.4,0.2,0.5
			c0.1,0.1,0.3,0.2,0.4,0.2c0.2,0,0.3-0.1,0.5-0.2c0.1-0.1,0.2-0.4,0.2-0.6c0-0.3-0.1-0.5-0.2-0.6c-0.1-0.1-0.3-0.2-0.5-0.2
			c-0.1,0-0.3,0-0.4,0.1c-0.1,0-0.2,0.1-0.3,0.3l-1.1-0.2L168.5,311.7z"/>
		<path fill="#FFFFFF" d="M172.2,312.9c0-0.2,0-0.4,0.1-0.6c0.1-0.2,0.2-0.4,0.4-0.5c0.2-0.1,0.4-0.2,0.7-0.2c0.4,0,0.7,0.1,0.9,0.3
			c0.2,0.2,0.3,0.5,0.3,0.9c0,0.4-0.1,0.7-0.3,0.9c-0.2,0.2-0.5,0.3-0.9,0.3c-0.3,0-0.5-0.1-0.7-0.2c-0.2-0.1-0.3-0.3-0.4-0.5
			C172.3,313.3,172.2,313.1,172.2,312.9z M173.1,312.9c0,0.2,0,0.4,0.1,0.5c0.1,0.1,0.2,0.1,0.3,0.1c0.1,0,0.2-0.1,0.3-0.2
			c0.1-0.1,0.1-0.3,0.1-0.5c0-0.2,0-0.4-0.1-0.5c-0.1-0.1-0.2-0.2-0.3-0.2c-0.1,0-0.2,0.1-0.3,0.2
			C173.1,312.5,173.1,312.6,173.1,312.9z"/>
		<path fill="#FFFFFF" d="M178.7,313.1l-1.3-0.2c0.1-0.4,0.3-0.7,0.6-0.9c0.3-0.2,0.7-0.3,1.3-0.3c0.6,0,1.1,0.1,1.4,0.4
			c0.3,0.2,0.4,0.5,0.4,0.9c0,0.2-0.1,0.4-0.2,0.6c-0.1,0.2-0.3,0.3-0.5,0.4c0.2,0,0.3,0.1,0.4,0.2c0.2,0.1,0.3,0.2,0.4,0.4
			c0.1,0.2,0.1,0.4,0.1,0.6c0,0.3-0.1,0.6-0.2,0.8c-0.1,0.3-0.4,0.5-0.6,0.6c-0.3,0.1-0.6,0.2-1.1,0.2c-0.4,0-0.8-0.1-1-0.2
			c-0.3-0.1-0.5-0.3-0.6-0.5c-0.2-0.2-0.3-0.4-0.4-0.8l1.3-0.2c0.1,0.3,0.1,0.5,0.2,0.6c0.1,0.1,0.3,0.2,0.4,0.2
			c0.2,0,0.3-0.1,0.5-0.2c0.1-0.1,0.2-0.3,0.2-0.5c0-0.2-0.1-0.4-0.2-0.5c-0.1-0.1-0.3-0.2-0.5-0.2c-0.1,0-0.3,0-0.4,0.1l0.1-1
			c0.1,0,0.1,0,0.2,0c0.2,0,0.3-0.1,0.4-0.2c0.1-0.1,0.2-0.2,0.2-0.4c0-0.1,0-0.3-0.1-0.4c-0.1-0.1-0.2-0.1-0.4-0.1
			c-0.2,0-0.3,0-0.4,0.1C178.8,312.7,178.7,312.9,178.7,313.1z"/>
		<path fill="#FFFFFF" d="M185,311.6v4.9h-1.4v-3.2c-0.2,0.2-0.4,0.3-0.6,0.4c-0.2,0.1-0.5,0.2-0.8,0.3v-1.1
			c0.5-0.1,0.8-0.3,1.1-0.5c0.3-0.2,0.5-0.5,0.6-0.8H185z"/>
		<path fill="#FFFFFF" d="M186.4,311.6h1.4v1.1c0,0.4-0.1,0.7-0.3,1c-0.2,0.2-0.5,0.4-0.9,0.6l-0.3-0.6c0.3-0.1,0.4-0.2,0.5-0.4
			c0.1-0.1,0.1-0.3,0.2-0.4h-0.7V311.6z"/>
	</g>
	<g>
		<path fill="#FFFFFF" d="M158.7,320h2v1h-0.8v4.1h0.8v1h-2V320z"/>
		<path fill="#FFFFFF" d="M164.2,320v4.9h-1.4v-3.2c-0.2,0.2-0.4,0.3-0.6,0.4c-0.2,0.1-0.5,0.2-0.8,0.3v-1.1
			c0.5-0.1,0.8-0.3,1.1-0.5c0.3-0.2,0.5-0.5,0.6-0.8H164.2z"/>
		<path fill="#FFFFFF" d="M169.6,324.9h-4c0-0.4,0.2-0.8,0.4-1.1c0.2-0.4,0.7-0.8,1.3-1.2c0.4-0.3,0.6-0.5,0.8-0.7
			c0.1-0.2,0.2-0.3,0.2-0.4c0-0.1-0.1-0.3-0.2-0.4c-0.1-0.1-0.2-0.2-0.4-0.2c-0.2,0-0.3,0.1-0.4,0.2c-0.1,0.1-0.2,0.3-0.2,0.6
			l-1.3-0.1c0.1-0.4,0.1-0.7,0.3-0.9c0.1-0.2,0.3-0.4,0.6-0.5c0.3-0.1,0.6-0.2,1.1-0.2c0.5,0,0.8,0.1,1.1,0.2
			c0.3,0.1,0.5,0.3,0.6,0.5c0.2,0.2,0.2,0.5,0.2,0.8c0,0.3-0.1,0.6-0.3,0.8c-0.2,0.3-0.5,0.6-0.9,0.9c-0.3,0.2-0.5,0.3-0.5,0.4
			c-0.1,0.1-0.2,0.2-0.3,0.3h2.1V324.9z"/>
		<path fill="#FFFFFF" d="M174.1,324.9h-4c0-0.4,0.2-0.8,0.4-1.1c0.2-0.4,0.7-0.8,1.3-1.2c0.4-0.3,0.6-0.5,0.8-0.7
			c0.1-0.2,0.2-0.3,0.2-0.4c0-0.1-0.1-0.3-0.2-0.4c-0.1-0.1-0.2-0.2-0.4-0.2c-0.2,0-0.3,0.1-0.4,0.2c-0.1,0.1-0.2,0.3-0.2,0.6
			l-1.3-0.1c0.1-0.4,0.1-0.7,0.3-0.9c0.1-0.2,0.3-0.4,0.6-0.5c0.3-0.1,0.6-0.2,1.1-0.2c0.5,0,0.8,0.1,1.1,0.2
			c0.3,0.1,0.5,0.3,0.6,0.5c0.2,0.2,0.2,0.5,0.2,0.8c0,0.3-0.1,0.6-0.3,0.8c-0.2,0.3-0.5,0.6-0.9,0.9c-0.3,0.2-0.5,0.3-0.5,0.4
			c-0.1,0.1-0.2,0.2-0.3,0.3h2.1V324.9z"/>
		<path fill="#FFFFFF" d="M174.5,321.2c0-0.2,0-0.4,0.1-0.6c0.1-0.2,0.2-0.4,0.4-0.5c0.2-0.1,0.4-0.2,0.7-0.2c0.4,0,0.7,0.1,0.9,0.3
			c0.2,0.2,0.3,0.5,0.3,0.9c0,0.4-0.1,0.7-0.3,0.9c-0.2,0.2-0.5,0.3-0.9,0.3c-0.3,0-0.5-0.1-0.7-0.2c-0.2-0.1-0.3-0.3-0.4-0.5
			C174.5,321.6,174.5,321.4,174.5,321.2z M175.3,321.2c0,0.2,0,0.4,0.1,0.5c0.1,0.1,0.2,0.1,0.3,0.1c0.1,0,0.2-0.1,0.3-0.2
			c0.1-0.1,0.1-0.3,0.1-0.5c0-0.2,0-0.4-0.1-0.5c-0.1-0.1-0.2-0.2-0.3-0.2c-0.1,0-0.2,0.1-0.3,0.2
			C175.4,320.8,175.3,321,175.3,321.2z"/>
		<path fill="#FFFFFF" d="M182,324h-2.5v-1.1l2.5-2.9h1.2v3h0.6v1h-0.6v0.9H182V324z M182,322.9v-1.5l-1.3,1.5H182z"/>
		<path fill="#FFFFFF" d="M187.2,320v4.9h-1.4v-3.2c-0.2,0.2-0.4,0.3-0.6,0.4c-0.2,0.1-0.5,0.2-0.8,0.3v-1.1
			c0.5-0.1,0.8-0.3,1.1-0.5c0.3-0.2,0.5-0.5,0.6-0.8H187.2z"/>
		<path fill="#FFFFFF" d="M188.6,320h1.4v1.1c0,0.4-0.1,0.7-0.3,1c-0.2,0.2-0.5,0.4-0.9,0.6l-0.3-0.6c0.3-0.1,0.4-0.2,0.5-0.4
			c0.1-0.1,0.1-0.3,0.2-0.4h-0.7V320z"/>
		<path fill="#FFFFFF" d="M192.5,326.2h-2v-1h0.8v-4.1h-0.8v-1h2V326.2z"/>
	</g>
	<g>
		<line fill="none" stroke="#FFFFFF" stroke-width="0.6847" stroke-miterlimit="10" x1="37.6" y1="71" x2="37.6" y2="55.3"/>
		<g>
			<polygon fill="#FFFFFF" points="39.2,69.9 37.6,75.8 36,69.9 			"/>
		</g>
	</g>
	<g>
		<line fill="none" stroke="#FFFFFF" stroke-width="0.6847" stroke-miterlimit="10" x1="37.6" y1="30.7" x2="37.6" y2="46.4"/>
		<g>
			<polygon fill="#FFFFFF" points="36,31.8 37.6,25.9 39.2,31.8 			"/>
		</g>
	</g>
	<g>
		<path fill="#FFFFFF" d="M74.2,126c0-0.8,0.2-1.4,0.7-1.8c0.4-0.4,1.1-0.7,1.8-0.7c0.8,0,1.4,0.2,1.9,0.6c0.4,0.4,0.7,1,0.7,1.8
			c0,0.6-0.1,1-0.3,1.4c-0.2,0.4-0.5,0.6-0.8,0.8c-0.4,0.2-0.8,0.3-1.3,0.3c-0.5,0-1-0.1-1.4-0.3c-0.4-0.2-0.6-0.4-0.9-0.8
			C74.3,127,74.2,126.5,74.2,126z M75.7,126c0,0.5,0.1,0.8,0.3,1.1c0.2,0.2,0.4,0.3,0.7,0.3c0.3,0,0.6-0.1,0.7-0.3
			c0.2-0.2,0.3-0.6,0.3-1.1c0-0.5-0.1-0.8-0.3-1c-0.2-0.2-0.4-0.3-0.7-0.3c-0.3,0-0.5,0.1-0.7,0.3C75.8,125.1,75.7,125.5,75.7,126z"
			/>
		<path fill="#FFFFFF" d="M80.1,128.4v-4.8h2.5c0.5,0,0.8,0,1.1,0.1c0.2,0.1,0.4,0.2,0.6,0.4c0.1,0.2,0.2,0.5,0.2,0.8
			c0,0.3-0.1,0.5-0.2,0.7c-0.1,0.2-0.3,0.4-0.5,0.5c-0.1,0.1-0.3,0.1-0.5,0.2c0.2,0.1,0.3,0.1,0.4,0.2c0.1,0,0.1,0.1,0.2,0.3
			c0.1,0.1,0.2,0.2,0.2,0.3l0.7,1.4h-1.7l-0.8-1.5c-0.1-0.2-0.2-0.3-0.3-0.4c-0.1-0.1-0.2-0.1-0.4-0.1h-0.1v2H80.1z M81.6,125.5h0.6
			c0.1,0,0.2,0,0.4-0.1c0.1,0,0.2-0.1,0.2-0.2c0.1-0.1,0.1-0.2,0.1-0.3c0-0.2,0-0.3-0.1-0.4c-0.1-0.1-0.3-0.1-0.6-0.1h-0.7V125.5z"
			/>
		<path fill="#FFFFFF" d="M85.3,123.5h4v1h-2.5v0.8h2.3v1h-2.3v1h2.6v1.1h-4.1V123.5z"/>
		<path fill="#FFFFFF" d="M92.6,126.6v-1h2.3v2.1c-0.4,0.3-0.8,0.5-1.2,0.6c-0.3,0.1-0.7,0.2-1.2,0.2c-0.6,0-1-0.1-1.4-0.3
			c-0.4-0.2-0.6-0.5-0.8-0.9c-0.2-0.4-0.3-0.8-0.3-1.3c0-0.5,0.1-1,0.3-1.4c0.2-0.4,0.5-0.7,1-0.9c0.3-0.2,0.8-0.2,1.3-0.2
			c0.5,0,0.9,0,1.2,0.1c0.3,0.1,0.5,0.2,0.7,0.5c0.2,0.2,0.3,0.5,0.4,0.8l-1.4,0.3c-0.1-0.2-0.2-0.3-0.3-0.4s-0.3-0.1-0.5-0.1
			c-0.3,0-0.6,0.1-0.8,0.3c-0.2,0.2-0.3,0.6-0.3,1.1c0,0.5,0.1,0.9,0.3,1.1c0.2,0.2,0.5,0.3,0.8,0.3c0.2,0,0.3,0,0.5-0.1
			c0.2,0,0.3-0.1,0.5-0.2v-0.5H92.6z"/>
		<path fill="#FFFFFF" d="M95.6,126c0-0.8,0.2-1.4,0.7-1.8c0.4-0.4,1.1-0.7,1.8-0.7c0.8,0,1.4,0.2,1.9,0.6c0.4,0.4,0.7,1,0.7,1.8
			c0,0.6-0.1,1-0.3,1.4c-0.2,0.4-0.5,0.6-0.8,0.8c-0.4,0.2-0.8,0.3-1.3,0.3c-0.5,0-1-0.1-1.4-0.3c-0.4-0.2-0.6-0.4-0.9-0.8
			C95.8,127,95.6,126.5,95.6,126z M97.1,126c0,0.5,0.1,0.8,0.3,1.1c0.2,0.2,0.4,0.3,0.7,0.3c0.3,0,0.6-0.1,0.7-0.3
			c0.2-0.2,0.3-0.6,0.3-1.1c0-0.5-0.1-0.8-0.3-1c-0.2-0.2-0.4-0.3-0.7-0.3c-0.3,0-0.5,0.1-0.7,0.3C97.2,125.1,97.1,125.5,97.1,126z"
			/>
		<path fill="#FFFFFF" d="M101.5,123.5h1.4l1.8,2.7v-2.7h1.4v4.8h-1.4l-1.8-2.7v2.7h-1.4V123.5z"/>
	</g>
	<g>
		<line fill="none" stroke="#FFFFFF" stroke-width="0.6847" stroke-miterlimit="10" x1="121.7" y1="25.9" x2="33.5" y2="25.9"/>
		<line fill="none" stroke="#FFFFFF" stroke-width="0.6847" stroke-miterlimit="10" x1="121.7" y1="75.8" x2="33.5" y2="75.8"/>
		<line fill="none" stroke="#FFFFFF" stroke-width="0.6847" stroke-miterlimit="10" x1="121.7" y1="82" x2="33.5" y2="82"/>
		<g>
			<path fill="#FFFFFF" d="M33.5,8.8h4.7c1.1,0,1.9,0.1,2.4,0.2c0.7,0.2,1.4,0.6,1.9,1.2c0.5,0.6,0.9,1.2,1.2,2.1
				c0.3,0.8,0.4,1.8,0.4,3c0,1-0.1,1.9-0.4,2.7c-0.3,0.9-0.8,1.7-1.4,2.2c-0.4,0.4-1,0.8-1.8,1c-0.6,0.2-1.3,0.3-2.3,0.3h-4.8V8.8z
				 M36.1,11v8.4H38c0.7,0,1.2,0,1.6-0.1c0.4-0.1,0.8-0.3,1-0.5c0.3-0.2,0.5-0.7,0.7-1.2c0.2-0.6,0.3-1.3,0.3-2.3
				c0-1-0.1-1.7-0.3-2.3c-0.2-0.5-0.4-0.9-0.7-1.2c-0.3-0.3-0.7-0.5-1.2-0.6C39,11,38.3,11,37.2,11H36.1z"/>
			<path fill="#FFFFFF" d="M45.8,15.3c0-1.3,0.2-2.4,0.6-3.3c0.3-0.6,0.7-1.2,1.2-1.7c0.5-0.5,1-0.9,1.6-1.1C50,8.8,50.9,8.6,52,8.6
				c1.9,0,3.4,0.6,4.5,1.7c1.1,1.2,1.7,2.8,1.7,4.8c0,2.1-0.6,3.7-1.7,4.8c-1.1,1.2-2.6,1.7-4.5,1.7c-1.9,0-3.4-0.6-4.5-1.7
				C46.4,18.9,45.8,17.3,45.8,15.3z M48.5,15.2c0,1.4,0.3,2.5,1,3.3c0.7,0.7,1.5,1.1,2.5,1.1c1,0,1.9-0.4,2.5-1.1
				c0.7-0.7,1-1.8,1-3.3c0-1.5-0.3-2.5-1-3.3c-0.6-0.7-1.5-1.1-2.5-1.1c-1.1,0-1.9,0.4-2.6,1.1C48.8,12.6,48.5,13.7,48.5,15.2z"/>
			<path fill="#FFFFFF" d="M60.2,21.6V8.8h5.4c1.4,0,2.3,0.1,3,0.3c0.6,0.2,1.1,0.6,1.5,1.2c0.4,0.6,0.6,1.3,0.6,2
				c0,1-0.3,1.7-0.8,2.4c-0.6,0.6-1.4,1-2.5,1.2c0.6,0.3,1,0.7,1.4,1.1c0.4,0.4,0.8,1.1,1.5,2.1l1.6,2.5h-3.1l-1.9-2.8
				c-0.7-1-1.1-1.6-1.4-1.9c-0.2-0.3-0.5-0.4-0.8-0.5c-0.3-0.1-0.7-0.1-1.3-0.1h-0.5v5.3H60.2z M62.7,14.2h1.9c1.2,0,2-0.1,2.3-0.2
				c0.3-0.1,0.5-0.3,0.7-0.5s0.3-0.6,0.3-1c0-0.4-0.1-0.8-0.3-1c-0.2-0.3-0.6-0.4-1-0.5c-0.2,0-0.8,0-1.9,0h-2V14.2z"/>
			<path fill="#FFFFFF" d="M73,21.6V8.8h2.6v5.6l5.2-5.6h3.5l-4.8,5l5,7.8h-3.3l-3.5-6l-2.1,2.1v3.8H73z"/>
			<path fill="#FFFFFF" d="M85.8,8.8h5.1c1,0,1.8,0,2.3,0.1c0.5,0.1,0.9,0.3,1.3,0.5c0.4,0.3,0.7,0.6,1,1.1c0.3,0.4,0.4,0.9,0.4,1.5
				c0,0.6-0.2,1.1-0.5,1.6c-0.3,0.5-0.8,0.9-1.3,1.1c0.8,0.2,1.4,0.6,1.8,1.2c0.4,0.5,0.6,1.2,0.6,1.9c0,0.6-0.1,1.1-0.4,1.7
				c-0.3,0.5-0.6,1-1.1,1.3c-0.5,0.3-1,0.5-1.7,0.6c-0.4,0-1.5,0.1-3.1,0.1h-4.3V8.8z M88.4,11v2.9h1.7c1,0,1.6,0,1.9,0
				c0.4-0.1,0.8-0.2,1-0.5c0.3-0.3,0.4-0.6,0.4-1c0-0.4-0.1-0.7-0.3-1c-0.2-0.2-0.5-0.4-1-0.4c-0.3,0-1,0-2.2,0H88.4z M88.4,16v3.4
				h2.4c0.9,0,1.5,0,1.8-0.1c0.4-0.1,0.7-0.2,0.9-0.5c0.2-0.3,0.4-0.6,0.4-1.1c0-0.4-0.1-0.7-0.3-1s-0.5-0.5-0.8-0.6
				S91.6,16,90.5,16H88.4z"/>
			<path fill="#FFFFFF" d="M98.1,15.3c0-1.3,0.2-2.4,0.6-3.3c0.3-0.6,0.7-1.2,1.2-1.7c0.5-0.5,1-0.9,1.6-1.1
				c0.8-0.3,1.7-0.5,2.7-0.5c1.9,0,3.4,0.6,4.5,1.7c1.1,1.2,1.7,2.8,1.7,4.8c0,2.1-0.6,3.7-1.7,4.8c-1.1,1.2-2.6,1.7-4.5,1.7
				c-1.9,0-3.4-0.6-4.5-1.7C98.7,18.9,98.1,17.3,98.1,15.3z M100.8,15.2c0,1.4,0.3,2.5,1,3.3c0.7,0.7,1.5,1.1,2.5,1.1
				s1.9-0.4,2.5-1.1c0.7-0.7,1-1.8,1-3.3c0-1.5-0.3-2.5-1-3.3c-0.6-0.7-1.5-1.1-2.5-1.1c-1.1,0-1.9,0.4-2.6,1.1
				C101.1,12.6,100.8,13.7,100.8,15.2z"/>
			<path fill="#FFFFFF" d="M115.3,21.6V11h-3.8V8.8h10.1V11h-3.8v10.6H115.3z"/>
		</g>
	</g>
</g>
</svg>
